<svg xmlns="http://www.w3.org/2000/svg" width="192" height="288" viewBox="0 0 192 288">
  <g fill-rule="evenodd">
    <g fill-rule="nonzero">
      <circle cx="36" cy="76" r="20"/>
      <circle cx="72" cy="44" r="20"/>
      <circle cx="120" cy="44" r="20"/>
      <circle cx="156" cy="76" r="20"/>
      <path d="M138.803379,124.382532 C149.286466,135.313981 162.17026,147.413676 159.689529,164.436696 C157.368846,172.864759 151.527126,181.376269 141.044039,183.796208 C135.202319,184.964455 116.556828,180.124576 96.7109843,180.124576 L95.2705601,180.124576 C75.4247162,180.124576 56.7792258,185.047901 50.9375056,183.796208 C40.4544187,181.376269 34.6126985,172.948205 32.2920151,164.436696 C29.8913082,147.497122 42.775102,135.397427 53.2581889,124.465978 C60.3002626,115.954468 66.1419828,108.694651 73.1040328,100.183141 C76.8651404,95.677048 81.5065071,91.1709546 87.1081566,89.1682464 C87.9884158,88.8344617 88.868675,88.5841232 89.7489342,88.4172309 C91.8295469,88 93.9901831,88 96.0707958,88 C98.1514084,88 100.312045,88 102.312634,88.3337847 C103.192893,88.500677 104.073152,88.7510156 104.953411,89.0848003 C110.555061,91.0875084 115.276451,95.5936019 118.957535,100.099695 C125.999609,108.611205 131.841329,115.871022 138.803379,124.382532 Z M91.384751,159.593071 L111.143235,145.599289 C112.285588,144.799645 112.285588,143.200355 111.143235,142.400711 L91.384751,128.406929 C89.9885412,127.407373 88,128.366947 88,130.006219 L88,157.993781 C88,159.633053 89.9885412,160.592627 91.384751,159.593071 Z"/>
    </g>
    <path d="M18.384,265.4 C17.9039976,265.4 17.4960017,265.232002 17.16,264.896 C16.8239983,264.559998 16.656,264.152002 16.656,263.672 L16.656,216.8 C16.656,216.271997 16.8119984,215.840002 17.124,215.504 C17.4360016,215.167998 17.8559974,215 18.384,215 L37.68,215 C43.488029,215 48.0479834,216.367986 51.36,219.104 C54.6720166,221.840014 56.328,225.823974 56.328,231.056 C56.328,236.240026 54.6720166,240.163987 51.36,242.828 C48.0479834,245.492013 43.488029,246.824 37.68,246.824 L27.096,246.824 L27.096,263.672 C27.096,264.200003 26.9280017,264.619998 26.592,264.932 C26.2559983,265.244002 25.8240026,265.4 25.296,265.4 L18.384,265.4 Z M36.024,238.696 C38.8080139,238.696 40.9319927,238.036007 42.396,236.716 C43.8600073,235.395993 44.592,233.464013 44.592,230.92 C44.592,228.423988 43.8840071,226.480007 42.468,225.088 C41.0519929,223.695993 38.9040144,223 36.024,223 L25.656,223 L25.656,238.696 L36.024,238.696 Z M66.184,265.4 C65.7519978,265.4 65.3920014,265.256001 65.104,264.968 C64.8159986,264.679999 64.672,264.320002 64.672,263.888 L64.816,263.24 L82.096,216.8 C82.5760024,215.599994 83.4399938,215 84.688,215 L92.608,215 C93.8560062,215 94.7199976,215.599994 95.2,216.8 L112.48,263.24 L112.624,263.888 C112.624,264.320002 112.468002,264.679999 112.156,264.968 C111.843998,265.256001 111.496002,265.4 111.112,265.4 L104.704,265.4 C103.695995,265.4 103.000002,264.944005 102.616,264.032 L99.304,255.32 L77.992,255.32 L74.68,264.032 C74.2959981,264.944005 73.600005,265.4 72.592,265.4 L66.184,265.4 Z M80.672,247.176 L96.944,247.176 L88.808,225 L80.672,247.176 Z M132.816,265.4 C131.423993,265.4 130.560002,264.680007 130.224,263.24 L121.728,217.088 L121.656,216.512 C121.656,216.079998 121.799999,215.720001 122.088,215.432 C122.376001,215.143999 122.735998,215 123.168,215 L129.648,215 C130.272003,215 130.727999,215.107999 131.016,215.324 C131.304001,215.540001 131.496,215.911997 131.592,216.44 L137.568,248.84 L143.976,227.96 C144.456002,226.759994 145.247994,226.16 146.352,226.16 L150.312,226.16 C150.936003,226.16 151.439998,226.339998 151.824,226.7 C152.208002,227.060002 152.471999,227.479998 152.616,227.96 L159.096,248.84 L165,216.44 C165.144001,215.479995 165.815994,215 167.016,215 L173.496,215 C173.880002,215 174.215999,215.143999 174.504,215.432 C174.792001,215.720001 174.936,216.079998 174.936,216.512 C174.936,216.752001 174.912,216.943999 174.864,217.088 L166.368,263.24 C166.272,263.912003 165.996002,264.439998 165.54,264.824 C165.083998,265.208002 164.496004,265.4 163.776,265.4 L158.88,265.4 C158.207997,265.4 157.656002,265.220002 157.224,264.86 C156.791998,264.499998 156.504001,264.080002 156.36,263.6 L148.296,239.696 L140.232,263.6 C139.847998,264.800006 139.008006,265.4 137.712,265.4 L132.816,265.4 Z"/>
  </g>
</svg>
