<?xml version="1.0" encoding="UTF-8"?>
<svg width="24px" height="24px" viewBox="0 0 24 24" version="1.1" xmlns="http://www.w3.org/2000/svg" xmlns:xlink="http://www.w3.org/1999/xlink">
    <!-- Generator: Sketch 50.2 (55047) - http://www.bohemiancoding.com/sketch -->
    <title>Logo / Paw / Playlogo</title>
    <desc>Created with Sketch.</desc>
    <defs></defs>
    <g id="Logo-/-Paw-/-Play" stroke="none" stroke-width="1" fill-rule="evenodd">
        <g id="Pets-Icon">
            <g id="Bounding_Boxes" fill="none">
                <polygon id="Shape" points="0 0 24 0 24 24 0 24"></polygon>
            </g>
            <g id="Rounded" transform="translate(2.000000, 3.000000)" fill-rule="nonzero">
                <g id="Group">
                    <circle id="Oval" cx="2.5" cy="6.5" r="2.5"></circle>
                    <circle id="Oval" cx="7" cy="2.5" r="2.5"></circle>
                    <circle id="Oval" cx="13" cy="2.5" r="2.5"></circle>
                    <circle id="Oval" cx="17.5" cy="6.5" r="2.5"></circle>
                    <path d="M15.3504224,12.5478165 C16.6608082,13.9142476 18.2712825,15.4267095 17.9611912,17.554587 C17.6711057,18.6080949 16.9408907,19.6720336 15.6305049,19.974526 C14.9002898,20.1205568 12.5696035,19.5155721 10.088873,19.5155721 L9.90882001,19.5155721 C7.42808953,19.5155721 5.09740322,20.1309876 4.3671882,19.974526 C3.05680233,19.6720336 2.32658731,18.6185257 2.03650189,17.554587 C1.73641353,15.4371403 3.34688775,13.9246784 4.65727362,12.5582473 C5.53753282,11.4943085 6.26774785,10.5868314 7.13800411,9.52289268 C7.60814255,8.959631 8.18831339,8.39636933 8.88851957,8.14603081 C8.99855197,8.10430772 9.10858437,8.0730154 9.21861677,8.05215386 C9.47869336,8 9.74877289,8 10.0088495,8 C10.2689261,8 10.5390056,8 10.7890792,8.04172309 C10.8991116,8.06258463 11.009144,8.09387695 11.1191764,8.13560003 C11.8193826,8.38593856 12.4095564,8.94920023 12.8696919,9.51246191 C13.7499511,10.5764006 14.4801661,11.4838778 15.3504224,12.5478165 Z M9.42309387,16.9491338 L11.8929044,15.1999112 C12.0356985,15.0999556 12.0356985,14.9000444 11.8929044,14.8000888 L9.42309387,13.0508662 C9.24856765,12.9259217 9,13.0458684 9,13.2507773 L9,16.7492227 C9,16.9541316 9.24856765,17.0740783 9.42309387,16.9491338 Z" id="Combined-Shape"></path>
                </g>
            </g>
        </g>
    </g>
</svg>