<svg xmlns="http://www.w3.org/2000/svg" width="20" height="20" viewBox="0 0 20 20">
  <path d="M8.66666667,4 C6.08933783,4 4,6.08933783 4,8.66666667 L4,15.3333333 C4,17.9106622 6.08933783,20 8.66666667,20 L15.3333333,20 C17.9106622,20 20,17.9106622 20,15.3333333 L20,8.66666667 C20,6.08933783 17.9106622,4 15.3333333,4 L8.66666667,4 Z M8.66666667,2 L15.3333333,2 C19.0152317,2 22,4.98476833 22,8.66666667 L22,15.3333333 C22,19.0152317 19.0152317,22 15.3333333,22 L8.66666667,22 C4.98476833,22 2,19.0152317 2,15.3333333 L2,8.66666667 C2,4.98476833 4.98476833,2 8.66666667,2 Z" transform="translate(-2 -2)"/>
</svg>
